<svg xmlns="http://www.w3.org/2000/svg" xmlns:xlink="http://www.w3.org/1999/xlink" version="1.1" width="3000" height="1000" viewBox="0 0 3000 1000" xml:space="preserve">
<desc>Created with Fabric.js 3.5.0</desc>
<defs>
</defs>
<rect x="0" y="0" width="100%" height="100%" fill="rgba(255,255,255,0)"/>
<g transform="matrix(29.2204 0 0 29.2204 502.4756 500)" id="974358">
<path style="stroke: none; stroke-width: 1; stroke-dasharray: none; stroke-linecap: butt; stroke-dashoffset: 0; stroke-linejoin: miter; stroke-miterlimit: 4; is-custom-font: none; font-file-url: none; fill: rgb(246,202,49); fill-rule: evenodd; opacity: 1;" vector-effect="non-scaling-stroke" transform=" translate(-16.042, -15.2425)" d="M 16.043 0 l 4.93 10.035 L 32 11.645 l -7.98 7.81 l 1.885 11.03 l -9.86 -5.208 l -9.865 5.207 l 1.884 -11.03 l -7.98 -7.81 l 11.027 -1.61 L 16.044 0 z" stroke-linecap="round"/>
</g>
<g transform="matrix(29.2204 0 0 29.2204 1500 500)" id="164452">
<path style="stroke: none; stroke-width: 1; stroke-dasharray: none; stroke-linecap: butt; stroke-dashoffset: 0; stroke-linejoin: miter; stroke-miterlimit: 4; is-custom-font: none; font-file-url: none; fill: rgb(246,202,49); fill-rule: evenodd; opacity: 1;" vector-effect="non-scaling-stroke" transform=" translate(-16.042, -15.2425)" d="M 16.043 0 l 4.93 10.035 L 32 11.645 l -7.98 7.81 l 1.885 11.03 l -9.86 -5.208 l -9.865 5.207 l 1.884 -11.03 l -7.98 -7.81 l 11.027 -1.61 L 16.044 0 z" stroke-linecap="round"/>
</g>
<g transform="matrix(29.2204 0 0 29.2204 2493.5548 500)" id="222470">
<path style="stroke: none; stroke-width: 1; stroke-dasharray: none; stroke-linecap: butt; stroke-dashoffset: 0; stroke-linejoin: miter; stroke-miterlimit: 4; is-custom-font: none; font-file-url: none; fill: rgb(246,202,49); fill-rule: evenodd; opacity: 1;" vector-effect="non-scaling-stroke" transform=" translate(-16.042, -15.2425)" d="M 16.043 0 l 4.93 10.035 L 32 11.645 l -7.98 7.81 l 1.885 11.03 l -9.86 -5.208 l -9.865 5.207 l 1.884 -11.03 l -7.98 -7.81 l 11.027 -1.61 L 16.044 0 z" stroke-linecap="round"/>
</g>
</svg>